HIERARCHY
ROOT Hips
{
  OFFSET -413.33 91.0374 1441.46
  CHANNELS 6 Xposition Yposition Zposition Zrotation Xrotation Yrotation
  JOINT Spine
  {
    OFFSET -7.86063e-05 8 0.000135667
    CHANNELS 6 Xposition Yposition Zposition Zrotation Xrotation Yrotation
    JOINT Spine1
    {
      OFFSET 0.00133588 8 0.00159478
      CHANNELS 6 Xposition Yposition Zposition Zrotation Xrotation Yrotation
      JOINT Spine2
      {
        OFFSET 8.74521e-05 8 0.000317099
        CHANNELS 6 Xposition Yposition Zposition Zrotation Xrotation Yrotation
        JOINT Spine3
        {
          OFFSET 0 8 0
          CHANNELS 6 Xposition Yposition Zposition Zrotation Xrotation Yrotation
          JOINT Neck
          {
            OFFSET 8.60056e-05 17 0
            CHANNELS 6 Xposition Yposition Zposition Zrotation Xrotation Yrotation
            JOINT Head
            {
              OFFSET 0.00222764 10.8 0.00607725
              CHANNELS 6 Xposition Yposition Zposition Zrotation Xrotation Yrotation
              End Site
              {
                OFFSET 0 20.25 0
              }
            }
          }
          JOINT LeftShoulder
          {
            OFFSET 5.00001 17 2.23257e-05
            CHANNELS 6 Xposition Yposition Zposition Zrotation Xrotation Yrotation
            JOINT LeftShoulder2
            {
              OFFSET 6.45 0 0
              CHANNELS 6 Xposition Yposition Zposition Zrotation Xrotation Yrotation
              JOINT LeftArm
              {
                OFFSET 6.45005 -1.5905e-05 2.59103e-05
                CHANNELS 6 Xposition Yposition Zposition Zrotation Xrotation Yrotation
                JOINT LeftForeArm
                {
                  OFFSET 0.00929524 -32.4198 -2.0142
                  CHANNELS 6 Xposition Yposition Zposition Zrotation Xrotation Yrotation
                  JOINT LeftHand
                  {
                    OFFSET -0.0041697 -25.6511 1.99618
                    CHANNELS 6 Xposition Yposition Zposition Zrotation Xrotation Yrotation
                    JOINT LeftHandThumb1
                    {
                      OFFSET -0.498478 -1.49902 2.64765
                      CHANNELS 6 Xposition Yposition Zposition Zrotation Xrotation Yrotation
                      JOINT LeftHandThumb2
                      {
                        OFFSET 0.00488345 -3.79953 3.69129
                        CHANNELS 6 Xposition Yposition Zposition Zrotation Xrotation Yrotation
                        JOINT LeftHandThumb3
                        {
                          OFFSET 0.000748926 -3.00211 2.69936
                          CHANNELS 6 Xposition Yposition Zposition Zrotation Xrotation Yrotation
                          End Site
                          {
                            OFFSET 0.00104586 -2.30242 1.79973
                          }
                        }
                      }
                    }
                    JOINT LeftHandIndex
                    {
                      OFFSET -0.00341286 -1.90327 1.60546
                      CHANNELS 6 Xposition Yposition Zposition Zrotation Xrotation Yrotation
                      JOINT LeftHandIndex1
                      {
                        OFFSET -0.0158852 -8.30612 1.92545
                        CHANNELS 6 Xposition Yposition Zposition Zrotation Xrotation Yrotation
                        JOINT LeftHandIndex2
                        {
                          OFFSET 0.000402595 -4.49992 -0.000490071
                          CHANNELS 6 Xposition Yposition Zposition Zrotation Xrotation Yrotation
                          JOINT LeftHandIndex3
                          {
                            OFFSET 0.00111018 -3.40491 0.00905067
                            CHANNELS 6 Xposition Yposition Zposition Zrotation Xrotation Yrotation
                            End Site
                            {
                              OFFSET -0.000286469 -2.60006 5.96657e-05
                            }
                          }
                        }
                      }
                    }
                    JOINT LeftHandMiddle
                    {
                      OFFSET -0.242143 -2.19742 0.386996
                      CHANNELS 6 Xposition Yposition Zposition Zrotation Xrotation Yrotation
                      JOINT LeftHandMiddle1
                      {
                        OFFSET -0.00530614 -8.30739 1.00801
                        CHANNELS 6 Xposition Yposition Zposition Zrotation Xrotation Yrotation
                        JOINT LeftHandMiddle2
                        {
                          OFFSET 0.000335428 -4.64973 -0.00124063
                          CHANNELS 6 Xposition Yposition Zposition Zrotation Xrotation Yrotation
                          JOINT LeftHandMiddle3
                          {
                            OFFSET -0.000646664 -3.30044 -0.00044308
                            CHANNELS 6 Xposition Yposition Zposition Zrotation Xrotation Yrotation
                            End Site
                            {
                              OFFSET 0.00164082 -2.69785 9.69444e-05
                            }
                          }
                        }
                      }
                    }
                    JOINT LeftHandRing
                    {
                      OFFSET -0.498057 -2.14049 -0.80228
                      CHANNELS 6 Xposition Yposition Zposition Zrotation Xrotation Yrotation
                      JOINT LeftHandRing1
                      {
                        OFFSET 0.00356635 -7.75281 -0.206454
                        CHANNELS 6 Xposition Yposition Zposition Zrotation Xrotation Yrotation
                        JOINT LeftHandRing2
                        {
                          OFFSET -0.0015322 -3.79985 0.00273702
                          CHANNELS 6 Xposition Yposition Zposition Zrotation Xrotation Yrotation
                          JOINT LeftHandRing3
                          {
                            OFFSET 0.000496526 -3.40043 0.000463192
                            CHANNELS 6 Xposition Yposition Zposition Zrotation Xrotation Yrotation
                            End Site
                            {
                              OFFSET 0.000148145 -2.59937 0.000546384
                            }
                          }
                        }
                      }
                    }
                    JOINT LeftHandPinky
                    {
                      OFFSET -0.750035 -1.75003 -1.84982
                      CHANNELS 6 Xposition Yposition Zposition Zrotation Xrotation Yrotation
                      JOINT LeftHandPinky1
                      {
                        OFFSET -5.99623e-05 -7.15117 -1.00019
                        CHANNELS 6 Xposition Yposition Zposition Zrotation Xrotation Yrotation
                        JOINT LeftHandPinky2
                        {
                          OFFSET -0.000495054 -3.00063 5.39661e-05
                          CHANNELS 6 Xposition Yposition Zposition Zrotation Xrotation Yrotation
                          JOINT LeftHandPinky3
                          {
                            OFFSET -0.000532058 -2.34942 -0.00458421
                            CHANNELS 6 Xposition Yposition Zposition Zrotation Xrotation Yrotation
                            End Site
                            {
                              OFFSET -0.000205401 -2.09999 -0.000237267
                            }
                          }
                        }
                      }
                    }
                  }
                }
              }
            }
          }
          JOINT RightShoulder
          {
            OFFSET -4.99995 17 3.69214e-05
            CHANNELS 6 Xposition Yposition Zposition Zrotation Xrotation Yrotation
            JOINT RightShoulder2
            {
              OFFSET -6.45 0 0
              CHANNELS 6 Xposition Yposition Zposition Zrotation Xrotation Yrotation
              JOINT RightArm
              {
                OFFSET -6.45003 -2.23254e-05 0
                CHANNELS 6 Xposition Yposition Zposition Zrotation Xrotation Yrotation
                JOINT RightForeArm
                {
                  OFFSET 0.000471933 -32.3971 -1.99879
                  CHANNELS 6 Xposition Yposition Zposition Zrotation Xrotation Yrotation
                  JOINT RightHand
                  {
                    OFFSET -0.00163807 -25.6529 1.99993
                    CHANNELS 6 Xposition Yposition Zposition Zrotation Xrotation Yrotation
                    JOINT RightHandThumb1
                    {
                      OFFSET 0.500029 -1.49969 2.65009
                      CHANNELS 6 Xposition Yposition Zposition Zrotation Xrotation Yrotation
                      JOINT RightHandThumb2
                      {
                        OFFSET -0.00172284 -3.8018 3.7071
                        CHANNELS 6 Xposition Yposition Zposition Zrotation Xrotation Yrotation
                        JOINT RightHandThumb3
                        {
                          OFFSET 0.00194599 -2.99976 2.69725
                          CHANNELS 6 Xposition Yposition Zposition Zrotation Xrotation Yrotation
                          End Site
                          {
                            OFFSET -0.000658934 -2.29959 1.7995
                          }
                        }
                      }
                    }
                    JOINT RightHandIndex
                    {
                      OFFSET 0.000177348 -1.8985 1.60014
                      CHANNELS 6 Xposition Yposition Zposition Zrotation Xrotation Yrotation
                      JOINT RightHandIndex1
                      {
                        OFFSET -0.00223979 -8.3038 1.90163
                        CHANNELS 6 Xposition Yposition Zposition Zrotation Xrotation Yrotation
                        JOINT RightHandIndex2
                        {
                          OFFSET -6.24196e-05 -4.49975 4.84795e-05
                          CHANNELS 6 Xposition Yposition Zposition Zrotation Xrotation Yrotation
                          JOINT RightHandIndex3
                          {
                            OFFSET 0.00176594 -3.40391 0.00331398
                            CHANNELS 6 Xposition Yposition Zposition Zrotation Xrotation Yrotation
                            End Site
                            {
                              OFFSET -2.88915e-05 -2.59942 0.000311658
                            }
                          }
                        }
                      }
                    }
                    JOINT RightHandMiddle
                    {
                      OFFSET 0.25396 -2.19011 0.398084
                      CHANNELS 6 Xposition Yposition Zposition Zrotation Xrotation Yrotation
                      JOINT RightHandMiddle1
                      {
                        OFFSET 0.00118696 -8.29217 1.00066
                        CHANNELS 6 Xposition Yposition Zposition Zrotation Xrotation Yrotation
                        JOINT RightHandMiddle2
                        {
                          OFFSET 0.00545701 -4.64741 -0.00172405
                          CHANNELS 6 Xposition Yposition Zposition Zrotation Xrotation Yrotation
                          JOINT RightHandMiddle3
                          {
                            OFFSET -0.00068109 -3.30084 0.00198195
                            CHANNELS 6 Xposition Yposition Zposition Zrotation Xrotation Yrotation
                            End Site
                            {
                              OFFSET -0.0143776 -2.69196 0.0130071
                            }
                          }
                        }
                      }
                    }
                    JOINT RightHandRing
                    {
                      OFFSET 0.498582 -2.14597 -0.797277
                      CHANNELS 6 Xposition Yposition Zposition Zrotation Xrotation Yrotation
                      JOINT RightHandRing1
                      {
                        OFFSET -0.000581953 -7.75184 -0.19979
                        CHANNELS 6 Xposition Yposition Zposition Zrotation Xrotation Yrotation
                        JOINT RightHandRing2
                        {
                          OFFSET -0.00132327 -3.79535 -0.00332789
                          CHANNELS 6 Xposition Yposition Zposition Zrotation Xrotation Yrotation
                          JOINT RightHandRing3
                          {
                            OFFSET -0.00096819 -3.40091 -0.00138477
                            CHANNELS 6 Xposition Yposition Zposition Zrotation Xrotation Yrotation
                            End Site
                            {
                              OFFSET -0.00150585 -2.59993 0.00235522
                            }
                          }
                        }
                      }
                    }
                    JOINT RightHandPinky
                    {
                      OFFSET 0.750422 -1.74748 -1.84985
                      CHANNELS 6 Xposition Yposition Zposition Zrotation Xrotation Yrotation
                      JOINT RightHandPinky1
                      {
                        OFFSET -0.00472436 -7.15841 -0.996316
                        CHANNELS 6 Xposition Yposition Zposition Zrotation Xrotation Yrotation
                        JOINT RightHandPinky2
                        {
                          OFFSET -0.0193859 -3.00264 0.00700413
                          CHANNELS 6 Xposition Yposition Zposition Zrotation Xrotation Yrotation
                          JOINT RightHandPinky3
                          {
                            OFFSET 0.00211684 -2.34867 -0.0017698
                            CHANNELS 6 Xposition Yposition Zposition Zrotation Xrotation Yrotation
                            End Site
                            {
                              OFFSET -0.0025709 -2.09887 0.00229862
                            }
                          }
                        }
                      }
                    }
                  }
                }
              }
            }
          }
        }
      }
    }
  }
  JOINT LeftUpLeg
  {
    OFFSET 7.99999 0 3.35634e-05
    CHANNELS 6 Xposition Yposition Zposition Zrotation Xrotation Yrotation
    JOINT LeftLeg
    {
      OFFSET -0.00395006 -44.9968 -1.00434
      CHANNELS 6 Xposition Yposition Zposition Zrotation Xrotation Yrotation
      JOINT LeftFoot
      {
        OFFSET 0.000883154 -41.0001 -1.99927
        CHANNELS 6 Xposition Yposition Zposition Zrotation Xrotation Yrotation
        JOINT LeftToeBase
        {
          OFFSET -0.000151842 -7.49994 12.5
          CHANNELS 6 Xposition Yposition Zposition Zrotation Xrotation Yrotation
          JOINT LeftFootToe
          {
            OFFSET 0 0 4
            CHANNELS 6 Xposition Yposition Zposition Zrotation Xrotation Yrotation
            End Site
            {
              OFFSET 0 0 0
            }
          }
        }
      }
    }
  }
  JOINT RightUpLeg
  {
    OFFSET -7.99999 0 -3.35634e-05
    CHANNELS 6 Xposition Yposition Zposition Zrotation Xrotation Yrotation
    JOINT RightLeg
    {
      OFFSET -0.00378011 -44.9973 -1.0015
      CHANNELS 6 Xposition Yposition Zposition Zrotation Xrotation Yrotation
      JOINT RightFoot
      {
        OFFSET 0.010369 -41.0305 -1.9953
        CHANNELS 6 Xposition Yposition Zposition Zrotation Xrotation Yrotation
        JOINT RightToeBase
        {
          OFFSET 0.00238122 -7.49972 12.5013
          CHANNELS 6 Xposition Yposition Zposition Zrotation Xrotation Yrotation
          JOINT RightFootToe
          {
            OFFSET 0 0 4
            CHANNELS 6 Xposition Yposition Zposition Zrotation Xrotation Yrotation
            End Site
            {
              OFFSET 0 0 0
            }
          }
        }
      }
    }
  }
}
MOTION
Frames:	3
Frame Time:	0.0111111
-413.569 90.9892 1442.14 2.98567 5.21328 -119.91 -2.27374e-13 8 1.13687e-13 7.05784 10.9053 12.6276 2.27374e-13 8 -1.7053e-13 0.940925 6.47177 4.79467 0 8 1.13687e-13 0.538061 3.23043 2.40292 0 8 1.7053e-13 0.537041 3.22204 2.39916 2.27374e-13 17 -8.52651e-14 0.422368 1.38273 6.12903 2.27374e-13 10.8 5.68434e-14 0.733662 3.24999 14.3279 5 17 0 0.975617 -2.35168 5.19403 6.45 0 5.68434e-14 -1.89041 -1.27864 -2.05753 6.45 -5.68434e-14 -5.68434e-14 17.6267 -81.734 9.9789 2.27374e-13 -32.4 -2 -6.87413 -3.92158 16.2178 0 -25.65 2 26.5509 26.5191 20.1872 -0.5 -1.5 2.65 -8.97097 -21.9945 11.1945 0 -3.8 3.7 12.1634 23.5431 4.04248 -1.13687e-13 -3 2.7 0.0350036 50.4454 -0.0633953 1.13687e-13 -1.9 1.6 4.58058e-06 2.75056e-06 -7.59395e-07 2.27374e-13 -8.3 1.9 -1.47481 6.56959 0.123532 2.27374e-13 -4.5 0 -12.0983 -0.0089304 -0.0126172 2.27374e-13 -3.4 0 -10.3396 0.0030523 -0.0115299 -0.25 -2.2 0.4 4.58058e-06 2.75056e-06 -7.59395e-07 1.13687e-13 -8.3 1 -8.87856 16.9819 1.86784 -1.13687e-13 -4.65 0 -86.9319 0.0121383 -0.0180201 0 -3.3 4.54747e-13 -90.0002 0.000231442 -1.62883e-05 -0.5 -2.15 -0.8 4.58058e-06 2.75056e-06 -7.59395e-07 -1.13687e-13 -7.75 -0.2 -21.7314 12.551 3.24942 0 -3.8 0 -20.7778 -0.00100789 0.0118869 2.27374e-13 -3.4 -2.27374e-13 -71.4402 8.68977e-05 0.0220372 -0.75 -1.75 -1.85 4.58058e-06 2.75056e-06 -7.59395e-07 -4.54747e-13 -7.15 -1 -42.0385 12.4323 7.13053 -1.13687e-13 -3 2.27374e-13 -12.7538 -0.00520948 -0.0025954 0 -2.35 -2.27374e-13 -10.815 -0.0235103 0.0149841 -5 17 -8.52651e-14 -0.0539335 -4.58721 3.85032 -6.45 -5.68434e-14 -1.13687e-13 -1.64216 1.24912 -4.82362 -6.45 0 -2.84217e-14 -21.0273 -63.795 16.5539 0 -32.4 -2 1.17876 -52.7833 7.94371 0 -25.65 2 -39.8926 13.2523 70.0883 0.5 -1.5 2.65 88.4516 24.4303 128.716 -2.27374e-13 -3.8 3.7 -1.72643 4.60198 -1.44256 0 -3 2.7 0.00676554 27.3854 -0.00663672 8.52651e-14 -1.9 1.6 -4.16921e-06 9.37856e-06 -3.10275e-08 5.68434e-14 -8.3 1.9 0.516676 -6.07849 0.00701997 0 -4.5 0 -0.0223998 0.152523 0.0775014 4.26326e-13 -3.4 2.27374e-13 -0.0207813 0.153764 0.223133 0.25 -2.2 0.4 -4.16921e-06 9.37856e-06 -3.10275e-08 -5.68434e-14 -8.3 1 2.43868 7.21421 -0.307772 0 -4.65 0 35.2377 17.786 1.17096 0 -3.3 0 29.7163 -0.010236 0.00342446 0.5 -2.15 -0.8 -4.16921e-06 9.37856e-06 -3.10275e-08 5.68434e-14 -7.75 -0.2 5.24707 9.41545 -0.780521 2.27374e-13 -3.8 -2.27374e-13 22.5498 38.0762 15.2691 1.42109e-13 -3.4 0 46.5814 0.00170958 0.00277307 0.75 -1.75 -1.85 -4.16921e-06 9.37856e-06 -3.10275e-08 8.52651e-14 -7.15 -1 31.427 20.154 -7.57538 5.68434e-14 -3 0 25.9149 18.7893 1.9836 1.13687e-13 -2.35 0 26.7747 -0.0068751 0.00368692 8 0 1.7053e-13 32.9889 -21.2015 33.0997 0 -45 -1 -22.8154 13.9863 9.93817 -2.27374e-13 -41 -2 11.9071 4.9437 -8.07756 -2.27374e-13 -7.5 12.5 1.04954e-05 -0.182585 0.0500082 -2.27374e-13 0 4 -0.340169 -5.28253 5.81898 -8 0 -5.68434e-14 12.4708 -23.6172 -42.4705 0 -45 -1 -46.1133 10.4978 14.8521 0 -41 -2 31.0484 -0.692983 -10.5661 0 -7.5 12.5 0.000117466 0.141928 -0.000232178 0 0 4 2.40622 1.39601 106.623 
-413.577 90.9892 1442.14 2.98509 5.21473 -119.92 0 8 5.68434e-14 7.06796 10.9085 12.6273 0 8 -1.13687e-13 0.948323 6.47965 4.79361 0 8 1.7053e-13 0.541784 3.23413 2.4021 2.27374e-13 8 8.52651e-14 0.54073 3.22555 2.39839 -2.27374e-13 17 -5.68434e-14 0.397352 1.34229 6.12126 2.27374e-13 10.8 0 0.68223 3.15113 14.3107 5 17 1.13687e-13 0.982643 -2.36957 5.21711 6.45 -5.68434e-14 0 -1.89359 -1.28468 -2.06765 6.45 -5.68434e-14 -5.68434e-14 17.0834 -81.9314 9.42955 2.27374e-13 -32.4 -2 -6.6924 -3.56198 16.1365 0 -25.65 2 27.1985 26.6804 19.8909 -0.5 -1.5 2.65 -9.19309 -21.8374 11.0388 -1.13687e-13 -3.8 3.7 12.2524 23.6618 4.03188 2.27374e-13 -3 2.7 0.0284148 49.585 -0.0563684 2.27374e-13 -1.9 1.6 4.58058e-06 2.75056e-06 -7.59395e-07 0 -8.3 1.9 -1.3962 6.12892 0.106709 1.13687e-13 -4.5 0 -11.6749 -0.00905147 -0.0104158 0 -3.4 0 -10.0239 0.00243434 -0.00956439 -0.25 -2.2 0.4 4.58058e-06 2.75056e-06 -7.59395e-07 1.13687e-13 -8.3 1 -8.7861 16.6924 1.82016 1.13687e-13 -4.65 2.27374e-13 -86.8691 0.0115764 -0.0180326 0 -3.3 2.27374e-13 -90.0002 0.000220776 -1.67442e-05 -0.5 -2.15 -0.8 4.58058e-06 2.75056e-06 -7.59395e-07 0 -7.75 -0.2 -21.7668 12.4097 3.22513 0 -3.8 0 -20.8489 -0.000550507 0.0112262 -1.13687e-13 -3.4 -4.54747e-13 -71.4776 0.000833458 0.0212035 -0.75 -1.75 -1.85 4.58058e-06 2.75056e-06 -7.59395e-07 -3.41061e-13 -7.15 -1 -42.0388 12.0806 6.98025 -1.13687e-13 -3 0 -12.7153 -0.00504839 -0.00304356 1.13687e-13 -2.35 -2.27374e-13 -10.787 -0.0228415 0.0140381 -5 17 0 -0.0718522 -4.63501 3.84594 -6.45 0 -1.13687e-13 -1.64167 1.26285 -4.827 -6.45 2.84217e-14 -5.68434e-14 -20.8004 -63.7068 16.828 0 -32.4 -2 0.996925 -52.691 7.63897 2.27374e-13 -25.65 2 -39.8723 13.3622 70.0285 0.5 -1.5 2.65 88.0088 24.7791 128.671 -2.27374e-13 -3.8 3.7 -1.74218 4.66065 -1.45303 0 -3 2.7 0.0069806 27.3854 -0.00605109 5.68434e-14 -1.9 1.6 -4.16921e-06 9.37856e-06 -3.10275e-08 5.68434e-14 -8.3 1.9 0.507233 -6.02683 0.00697675 0 -4.5 -2.27374e-13 -0.0228754 0.153605 0.0782447 4.54747e-13 -3.4 2.27374e-13 -0.0211021 0.154895 0.224971 0.25 -2.2 0.4 -4.16921e-06 9.37856e-06 -3.10275e-08 -5.68434e-14 -8.3 1 2.32249 7.3594 -0.297659 0 -4.65 0 35.8551 18.2825 1.24069 0 -3.3 0 30.2353 -0.00723772 0.00161045 0.5 -2.15 -0.8 -4.16921e-06 9.37856e-06 -3.10275e-08 5.68434e-14 -7.75 -0.2 4.86021 9.29628 -0.721819 2.27374e-13 -3.8 2.27374e-13 22.4687 38.257 15.4799 8.52651e-14 -3.4 0 46.8319 0.000753142 0.00118817 0.75 -1.75 -1.85 -4.16921e-06 9.37856e-06 -3.10275e-08 5.68434e-14 -7.15 -1 30.7943 20.2587 -7.44755 2.84217e-14 -3 0 26.5501 19.4669 2.13768 -5.68434e-14 -2.35 0 27.4337 -0.00405586 0.000927987 8 -2.84217e-14 5.68434e-14 32.9927 -21.1967 33.0992 2.27374e-13 -45 -1 -22.8183 13.9981 9.94198 -2.27374e-13 -41 -2 11.9 4.93494 -8.07218 0 -7.5 12.5 1.11456e-05 -0.182978 0.0501043 0 -1.42109e-14 4 -0.339403 -5.29088 5.81897 -8 -2.84217e-14 -5.68434e-14 12.4723 -23.619 -42.4793 1.13687e-13 -45 -1 -46.1133 10.4961 14.8519 1.13687e-13 -41 -2 31.04 -0.691863 -10.5457 0 -7.5 12.5 0.000117467 0.142255 -0.000232178 0 0 4 2.40679 1.39608 106.623 
-413.582 90.9892 1442.14 2.98487 5.21576 -119.927 0 8 1.13687e-13 7.07777 10.9149 12.6297 -2.27374e-13 8 -1.7053e-13 0.955303 6.48948 4.79221 2.27374e-13 8 1.7053e-13 0.545365 3.23888 2.40146 0 8 1.13687e-13 0.544216 3.23069 2.39768 0 17 -5.68434e-14 0.373324 1.30127 6.11222 4.54747e-13 10.8 5.68434e-14 0.633341 3.05134 14.2903 5 17 8.52651e-14 0.991829 -2.3927 5.25091 6.45 0 -5.68434e-14 -1.89554 -1.29186 -2.07767 6.45 -8.52651e-14 -5.68434e-14 16.4056 -82.1331 8.75531 0 -32.4 -2 -6.5055 -3.18972 16.0676 -2.27374e-13 -25.65 2 27.8518 26.8469 19.5554 -0.5 -1.5 2.65 -9.47638 -21.6437 10.8659 -1.13687e-13 -3.8 3.7 12.3484 23.7908 4.01971 1.13687e-13 -3 2.7 0.0209718 48.7789 -0.047956 2.27374e-13 -1.9 1.6 4.58058e-06 2.75056e-06 -7.59395e-07 0 -8.3 1.9 -1.32507 5.6945 0.0913892 3.41061e-13 -4.5 0 -11.2751 -0.00917563 -0.0082813 0 -3.4 0 -9.7229 0.00176944 -0.00771711 -0.25 -2.2 0.4 4.58058e-06 2.75056e-06 -7.59395e-07 4.54747e-13 -8.3 1 -8.70695 16.4195 1.77769 0 -4.65 0 -86.8133 0.0108587 -0.0179739 0 -3.3 2.27374e-13 -90.0002 0.000210158 -1.71983e-05 -0.5 -2.15 -0.8 4.58058e-06 2.75056e-06 -7.59395e-07 -2.27374e-13 -7.75 -0.2 -21.8557 12.2651 3.2087 -2.27374e-13 -3.8 0 -20.8752 -6.43668e-05 0.0104835 0 -3.4 -2.27374e-13 -71.4915 0.00158282 0.0203776 -0.75 -1.75 -1.85 4.58058e-06 2.75056e-06 -7.59395e-07 -2.27374e-13 -7.15 -1 -42.0711 11.729 6.83843 -4.54747e-13 -3 0 -12.7072 -0.00486888 -0.00348412 0 -2.35 0 -10.7812 -0.0221042 0.0130758 -5 17 -8.52651e-14 -0.0913901 -4.68387 3.82829 -6.45 -5.68434e-14 -1.7053e-13 -1.64126 1.27561 -4.82805 -6.45 -2.84217e-14 -8.52651e-14 -20.5455 -63.6248 17.1339 0 -32.4 -2 0.793128 -52.5851 7.26659 2.27374e-13 -25.65 2 -39.8531 13.4502 70.0246 0.5 -1.5 2.65 87.5577 25.1194 128.63 0 -3.8 3.7 -1.76194 4.73519 -1.46578 0 -3 2.7 0.00719473 27.3854 -0.00545596 5.68434e-14 -1.9 1.6 -4.16921e-06 9.37856e-06 -3.10275e-08 5.68434e-14 -8.3 1.9 0.509001 -6.03694 0.00694765 0 -4.5 0 -0.023346 0.154685 0.0789833 4.54747e-13 -3.4 0 -0.0214142 0.156014 0.226786 0.25 -2.2 0.4 -4.16921e-06 9.37856e-06 -3.10275e-08 -5.68434e-14 -8.3 1 2.20381 7.47988 -0.286173 0 -4.65 -2.27374e-13 36.5376 18.8452 1.32318 0 -3.3 0 30.8305 -0.00537207 0.000543176 0.5 -2.15 -0.8 -4.16921e-06 9.37856e-06 -3.10275e-08 8.52651e-14 -7.75 -0.2 4.47288 9.15331 -0.663071 2.27374e-13 -3.8 2.27374e-13 22.3061 38.5909 15.8847 1.13687e-13 -3.4 0 47.3433 0.00178901 -0.000437525 0.75 -1.75 -1.85 -4.16921e-06 9.37856e-06 -3.10275e-08 5.68434e-14 -7.15 -1 30.3412 20.2878 -7.34128 -2.84217e-14 -3 -2.27374e-13 27.2114 20.1984 2.31271 0 -2.35 0 28.1513 -0.00088408 -0.00135723 8 0 1.13687e-13 32.9942 -21.1947 33.0963 -2.27374e-13 -45 -1 -22.8209 14.008 9.94508 -2.27374e-13 -41 -2 11.8946 4.92538 -8.06495 -4.54747e-13 -7.5 12.5 1.17972e-05 -0.183371 0.0502004 0 0 4 -0.339365 -5.294 5.81892 -8 0 -5.68434e-14 12.4734 -23.6227 -42.4906 2.27374e-13 -45 -1 -46.1137 10.4925 14.8502 -1.13687e-13 -41 -2 31.0324 -0.688913 -10.5255 0 -7.5 12.5 0.000117469 0.142583 -0.000232178 -1.13687e-13 0 4 2.40738 1.39615 106.622 
